{
  "accessors": [
    {
      "bufferView": 2,
      "componentType": 5126,
      "count": 65533,
      "max": [
        0.248392716050148,
        0.6996291875839233,
        0.19661003351211548
      ],
      "min": [
        -0.18847067654132843,
        -0.9576166868209839,
        -0.19557225704193115
      ],
      "type": "VEC3"
    },
    {
      "bufferView": 2,
      "byteOffset": 786396,
      "componentType": 5126,
      "count": 65533,
      "max": [
        0.9999921917915344,
        0.9998994469642639,
        0.9999943971633911
      ],
      "min": [
        -0.9999996423721313,
        -0.9998902082443237,
        -0.9999915361404419
      ],
      "type": "VEC3"
    },
    {
      "bufferView": 3,
      "componentType": 5126,
      "count": 65533,
      "max": [
        0.8999999761581421,
        0.8999999761581421,
        0.8999999761581421,
        1.0
      ],
      "min": [
        0.8999999761581421,
        0.8999999761581421,
        0.8999999761581421,
        1.0
      ],
      "type": "VEC4"
    },
    {
      "bufferView": 1,
      "componentType": 5126,
      "count": 65533,
      "max": [
        0.9463551044464111,
        0.9979541301727295
      ],
      "min": [
        0.002045866334810853,
        0.002045869827270508
      ],
      "type": "VEC2"
    },
    {
      "bufferView": 0,
      "componentType": 5125,
      "count": 253380,
      "type": "SCALAR"
    },
    {
      "bufferView": 2,
      "byteOffset": 1572792,
      "componentType": 5126,
      "count": 65532,
      "max": [
        0.1803819090127945,
        0.7003767490386963,
        0.20864847302436829
      ],
      "min": [
        -0.16776342689990997,
        -0.9575035572052002,
        -0.16288316249847412
      ],
      "type": "VEC3"
    },
    {
      "bufferView": 2,
      "byteOffset": 2359176,
      "componentType": 5126,
      "count": 65532,
      "max": [
        0.999975860118866,
        0.9999468326568604,
        0.9999976754188538
      ],
      "min": [
        -0.999998927116394,
        -0.999753475189209,
        -0.9999961256980896
      ],
      "type": "VEC3"
    },
    {
      "bufferView": 3,
      "byteOffset": 1048528,
      "componentType": 5126,
      "count": 65532,
      "max": [
        0.8999999761581421,
        0.8999999761581421,
        0.8999999761581421,
        1.0
      ],
      "min": [
        0.8999999761581421,
        0.8999999761581421,
        0.8999999761581421,
        1.0
      ],
      "type": "VEC4"
    },
    {
      "bufferView": 1,
      "byteOffset": 524264,
      "componentType": 5126,
      "count": 65532,
      "max": [
        0.9523503184318542,
        0.9979541301727295
      ],
      "min": [
        0.002045866334810853,
        0.0284121036529541
      ],
      "type": "VEC2"
    },
    {
      "bufferView": 0,
      "byteOffset": 1013520,
      "componentType": 5125,
      "count": 289083,
      "type": "SCALAR"
    },
    {
      "bufferView": 2,
      "byteOffset": 3145560,
      "componentType": 5126,
      "count": 17627,
      "max": [
        0.23601548373699188,
        0.6856011152267456,
        0.19681107997894287
      ],
      "min": [
        -0.19002731144428253,
        -0.9438966512680054,
        -0.16255146265029907
      ],
      "type": "VEC3"
    },
    {
      "bufferView": 2,
      "byteOffset": 3357084,
      "componentType": 5126,
      "count": 17627,
      "max": [
        0.9994866251945496,
        0.9999098181724548,
        0.9997483491897583
      ],
      "min": [
        -0.9999160170555115,
        -0.9999833106994629,
        -0.9999927282333374
      ],
      "type": "VEC3"
    },
    {
      "bufferView": 3,
      "byteOffset": 2097040,
      "componentType": 5126,
      "count": 17627,
      "max": [
        0.8999999761581421,
        0.8999999761581421,
        0.8999999761581421,
        1.0
      ],
      "min": [
        0.8999999761581421,
        0.8999999761581421,
        0.8999999761581421,
        1.0
      ],
      "type": "VEC4"
    },
    {
      "bufferView": 1,
      "byteOffset": 1048520,
      "componentType": 5126,
      "count": 17627,
      "max": [
        0.9944934844970703,
        0.9735245704650879
      ],
      "min": [
        0.002045866334810853,
        0.04402881860733032
      ],
      "type": "VEC2"
    },
    {
      "bufferView": 0,
      "byteOffset": 2169852,
      "componentType": 5125,
      "count": 57927,
      "type": "SCALAR"
    }
  ],
  "asset": {
    "extras": {
      "author": "CODAME (https://sketchfab.com/codame)",
      "license": "CC-BY-4.0 (http://creativecommons.org/licenses/by/4.0/)",
      "source": "https://sketchfab.com/3d-models/iota-chen-b5ffd28a68e848ee92f538da6dc776bf",
      "title": "iOta Chen"
    },
    "generator": "Sketchfab-12.68.0",
    "version": "2.0"
  },
  "bufferViews": [
    {
      "buffer": 0,
      "byteLength": 2401560,
      "name": "floatBufferViews",
      "target": 34963
    },
    {
      "buffer": 0,
      "byteLength": 1189536,
      "byteOffset": 2401560,
      "byteStride": 8,
      "name": "floatBufferViews",
      "target": 34962
    },
    {
      "buffer": 0,
      "byteLength": 3568608,
      "byteOffset": 3591096,
      "byteStride": 12,
      "name": "floatBufferViews",
      "target": 34962
    },
    {
      "buffer": 0,
      "byteLength": 2379072,
      "byteOffset": 7159704,
      "byteStride": 16,
      "name": "floatBufferViews",
      "target": 34962
    }
  ],
  "buffers": [
    {
      "byteLength": 9538776,
      "uri": "scene.bin"
    }
  ],
  "extensionsUsed": [
    "KHR_materials_unlit"
  ],
  "images": [
    {
      "uri": "textures/material_0_baseColor.jpeg"
    }
  ],
  "materials": [
    {
      "doubleSided": true,
      "extensions": {
        "KHR_materials_unlit": {}
      },
      "name": "material_0",
      "pbrMetallicRoughness": {
        "baseColorTexture": {
          "index": 0
        },
        "metallicFactor": 0.0
      }
    }
  ],
  "meshes": [
    {
      "name": "Object_0",
      "primitives": [
        {
          "attributes": {
            "COLOR_0": 2,
            "NORMAL": 1,
            "POSITION": 0,
            "TEXCOORD_0": 3
          },
          "indices": 4,
          "material": 0,
          "mode": 4
        }
      ]
    },
    {
      "name": "Object_1",
      "primitives": [
        {
          "attributes": {
            "COLOR_0": 7,
            "NORMAL": 6,
            "POSITION": 5,
            "TEXCOORD_0": 8
          },
          "indices": 9,
          "material": 0,
          "mode": 4
        }
      ]
    },
    {
      "name": "Object_2",
      "primitives": [
        {
          "attributes": {
            "COLOR_0": 12,
            "NORMAL": 11,
            "POSITION": 10,
            "TEXCOORD_0": 13
          },
          "indices": 14,
          "material": 0,
          "mode": 4
        }
      ]
    }
  ],
  "nodes": [
    {
      "children": [
        1
      ],
      "matrix": [
        1.0,
        0.0,
        0.0,
        0.0,
        0.0,
        2.220446049250313e-16,
        -1.0,
        0.0,
        0.0,
        1.0,
        2.220446049250313e-16,
        0.0,
        0.0,
        0.0,
        0.0,
        1.0
      ],
      "name": "Sketchfab_model"
    },
    {
      "children": [
        2,
        3,
        4
      ],
      "matrix": [
        1.0,
        0.0,
        0.0,
        0.0,
        0.0,
        0.0,
        1.0,
        0.0,
        0.0,
        -1.0,
        0.0,
        0.0,
        0.0,
        0.0,
        0.0,
        1.0
      ],
      "name": "model_mesh.wrl.cleaner.gles"
    },
    {
      "mesh": 0,
      "name": "Object_2"
    },
    {
      "mesh": 1,
      "name": "Object_3"
    },
    {
      "mesh": 2,
      "name": "Object_4"
    }
  ],
  "samplers": [
    {
      "magFilter": 9729,
      "minFilter": 9987,
      "wrapS": 10497,
      "wrapT": 10497
    }
  ],
  "scene": 0,
  "scenes": [
    {
      "name": "Sketchfab_Scene",
      "nodes": [
        0
      ]
    }
  ],
  "textures": [
    {
      "sampler": 0,
      "source": 0
    }
  ]
}
