{
  "accessors": [
    {
      "bufferView": 2,
      "componentType": 5126,
      "count": 690,
      "max": [
        0.08890300244092941,
        2.025791883468628,
        0.15224899351596832
      ],
      "min": [
        -0.08890300244092941,
        1.7216119766235352,
        -0.08661399781703949
      ],
      "type": "VEC3"
    },
    {
      "bufferView": 2,
      "byteOffset": 8280,
      "componentType": 5126,
      "count": 690,
      "max": [
        0.9998940229415894,
        0.9806442856788635,
        0.9913087487220764
      ],
      "min": [
        -0.9997425079345703,
        -0.9915736317634583,
        -0.9906964898109436
      ],
      "type": "VEC3"
    },
    {
      "bufferView": 1,
      "componentType": 5126,
      "count": 690,
      "max": [
        0.995048999786377,
        0.995048999786377
      ],
      "min": [
        0.5,
        0.00494999997317791
      ],
      "type": "VEC2"
    },
    {
      "bufferView": 0,
      "componentType": 5125,
      "count": 900,
      "type": "SCALAR"
    },
    {
      "bufferView": 2,
      "byteOffset": 16560,
      "componentType": 5126,
      "count": 1578,
      "max": [
        0.09664300084114075,
        1.9763480424880981,
        0.2440979927778244
      ],
      "min": [
        -0.12371200323104858,
        0.9930160045623779,
        -0.08687199652194977
      ],
      "type": "VEC3"
    },
    {
      "bufferView": 2,
      "byteOffset": 35496,
      "componentType": 5126,
      "count": 1578,
      "max": [
        0.9998288154602051,
        0.9987364411354065,
        0.9991562962532043
      ],
      "min": [
        -0.9989131093025208,
        -0.9997849464416504,
        -0.9995375871658325
      ],
      "type": "VEC3"
    },
    {
      "bufferView": 1,
      "byteOffset": 5520,
      "componentType": 5126,
      "count": 1578,
      "max": [
        0.995048999786377,
        1.0
      ],
      "min": [
        0.0,
        0.0
      ],
      "type": "VEC2"
    },
    {
      "bufferView": 0,
      "byteOffset": 3600,
      "componentType": 5125,
      "count": 2190,
      "type": "SCALAR"
    },
    {
      "bufferView": 2,
      "byteOffset": 54432,
      "componentType": 5126,
      "count": 234,
      "max": [
        0.1231829971075058,
        1.8771920204162598,
        0.12494000047445297
      ],
      "min": [
        -0.12315399944782257,
        1.5461469888687134,
        -0.12027899920940399
      ],
      "type": "VEC3"
    },
    {
      "bufferView": 2,
      "byteOffset": 57240,
      "componentType": 5126,
      "count": 234,
      "max": [
        0.9349016547203064,
        0.9974923729896545,
        0.9999558329582214
      ],
      "min": [
        -0.9235652089118958,
        -0.8598293662071228,
        -0.9371122121810913
      ],
      "type": "VEC3"
    },
    {
      "bufferView": 1,
      "byteOffset": 18144,
      "componentType": 5126,
      "count": 234,
      "max": [
        0.8094059824943542,
        1.0
      ],
      "min": [
        0.0,
        0.0
      ],
      "type": "VEC2"
    },
    {
      "bufferView": 0,
      "byteOffset": 12360,
      "componentType": 5125,
      "count": 306,
      "type": "SCALAR"
    },
    {
      "bufferView": 2,
      "byteOffset": 60048,
      "componentType": 5126,
      "count": 2852,
      "max": [
        0.3220840096473694,
        1.7337239980697632,
        0.2405730038881302
      ],
      "min": [
        -0.2999579906463623,
        0.02772199921309948,
        -0.188277006149292
      ],
      "type": "VEC3"
    },
    {
      "bufferView": 2,
      "byteOffset": 94272,
      "componentType": 5126,
      "count": 2852,
      "max": [
        0.9989519715309143,
        0.9755593538284302,
        0.9999449253082275
      ],
      "min": [
        -0.9971194863319397,
        -0.9992077946662903,
        -0.9999362230300903
      ],
      "type": "VEC3"
    },
    {
      "bufferView": 1,
      "byteOffset": 20016,
      "componentType": 5126,
      "count": 2852,
      "max": [
        1.0,
        1.0
      ],
      "min": [
        0.0,
        0.0
      ],
      "type": "VEC2"
    },
    {
      "bufferView": 0,
      "byteOffset": 13584,
      "componentType": 5125,
      "count": 4080,
      "type": "SCALAR"
    },
    {
      "bufferView": 2,
      "byteOffset": 128496,
      "componentType": 5126,
      "count": 316,
      "max": [
        0.33096298575401306,
        1.3400299549102783,
        0.18740999698638916
      ],
      "min": [
        -0.32455798983573914,
        -0.015093999914824963,
        -0.11947499960660934
      ],
      "type": "VEC3"
    },
    {
      "bufferView": 2,
      "byteOffset": 132288,
      "componentType": 5126,
      "count": 316,
      "max": [
        0.9990781545639038,
        0.9929782152175903,
        0.9996863603591919
      ],
      "min": [
        -0.9997721910476685,
        -0.9999632835388184,
        -0.9893025755882263
      ],
      "type": "VEC3"
    },
    {
      "bufferView": 1,
      "byteOffset": 42832,
      "componentType": 5126,
      "count": 316,
      "max": [
        1.0,
        1.0
      ],
      "min": [
        0.0,
        0.0
      ],
      "type": "VEC2"
    },
    {
      "bufferView": 0,
      "byteOffset": 29904,
      "componentType": 5125,
      "count": 456,
      "type": "SCALAR"
    },
    {
      "bufferView": 2,
      "byteOffset": 136080,
      "componentType": 5126,
      "count": 94,
      "max": [
        0.028304999694228172,
        1.69834303855896,
        0.12900499999523163
      ],
      "min": [
        -0.02758600004017353,
        1.5276060104370117,
        0.058678001165390015
      ],
      "type": "VEC3"
    },
    {
      "bufferView": 2,
      "byteOffset": 137208,
      "componentType": 5126,
      "count": 94,
      "max": [
        0.9498414993286133,
        0.9680309295654297,
        0.9433485865592957
      ],
      "min": [
        -0.9396409392356873,
        -0.7750109434127808,
        0.005942026153206825
      ],
      "type": "VEC3"
    },
    {
      "bufferView": 1,
      "byteOffset": 45360,
      "componentType": 5126,
      "count": 94,
      "max": [
        1.0,
        1.0
      ],
      "min": [
        0.0,
        0.75
      ],
      "type": "VEC2"
    },
    {
      "bufferView": 0,
      "byteOffset": 31728,
      "componentType": 5125,
      "count": 138,
      "type": "SCALAR"
    },
    {
      "bufferView": 2,
      "byteOffset": 138336,
      "componentType": 5126,
      "count": 26,
      "max": [
        0.1561889946460724,
        1.5580569505691528,
        0.13628000020980835
      ],
      "min": [
        0.08003100007772446,
        1.5030100345611572,
        0.08869200199842453
      ],
      "type": "VEC3"
    },
    {
      "bufferView": 2,
      "byteOffset": 138648,
      "componentType": 5126,
      "count": 26,
      "max": [
        0.7692536115646362,
        0.37992385029792786,
        0.9994906187057495
      ],
      "min": [
        -0.6185302734375,
        -0.40701013803482056,
        -0.9260923862457275
      ],
      "type": "VEC3"
    },
    {
      "bufferView": 1,
      "byteOffset": 46112,
      "componentType": 5126,
      "count": 26,
      "max": [
        0.995048999786377,
        0.995048999786377
      ],
      "min": [
        0.00494999997317791,
        0.00494999997317791
      ],
      "type": "VEC2"
    },
    {
      "bufferView": 0,
      "byteOffset": 32280,
      "componentType": 5125,
      "count": 30,
      "type": "SCALAR"
    },
    {
      "bufferView": 2,
      "byteOffset": 138960,
      "componentType": 5126,
      "count": 112,
      "max": [
        0.04346099868416786,
        1.8798400163650513,
        0.1265220046043396
      ],
      "min": [
        -0.04346099868416786,
        1.8641849756240845,
        0.12097200006246567
      ],
      "type": "VEC3"
    },
    {
      "bufferView": 2,
      "byteOffset": 140304,
      "componentType": 5126,
      "count": 112,
      "max": [
        0.9199498891830444,
        0.8438512682914734,
        0.99632728099823
      ],
      "min": [
        -0.9233201742172241,
        -0.8933082222938538,
        0.26127275824546814
      ],
      "type": "VEC3"
    },
    {
      "bufferView": 1,
      "byteOffset": 46320,
      "componentType": 5126,
      "count": 112,
      "max": [
        0.995048999786377,
        0.00494999997317791
      ],
      "min": [
        0.00494999997317791,
        0.00494999997317791
      ],
      "type": "VEC2"
    },
    {
      "bufferView": 0,
      "byteOffset": 32400,
      "componentType": 5125,
      "count": 144,
      "type": "SCALAR"
    }
  ],
  "asset": {
    "extras": {
      "author": "DavidA3D (https://sketchfab.com/DavidA3D)",
      "license": "CC-BY-NC-4.0 (http://creativecommons.org/licenses/by-nc/4.0/)",
      "source": "https://sketchfab.com/3d-models/jonny-frost-jim-parrack-e6d3dba923fd43ddbe30418b301d110e",
      "title": "Jonny Frost (Jim Parrack)"
    },
    "generator": "Sketchfab-12.67.0",
    "version": "2.0"
  },
  "bufferViews": [
    {
      "buffer": 0,
      "byteLength": 32976,
      "name": "floatBufferViews",
      "target": 34963
    },
    {
      "buffer": 0,
      "byteLength": 47216,
      "byteOffset": 32976,
      "byteStride": 8,
      "name": "floatBufferViews",
      "target": 34962
    },
    {
      "buffer": 0,
      "byteLength": 141648,
      "byteOffset": 80192,
      "byteStride": 12,
      "name": "floatBufferViews",
      "target": 34962
    }
  ],
  "buffers": [
    {
      "byteLength": 221840,
      "uri": "scene.bin"
    }
  ],
  "materials": [
    {
      "doubleSided": true,
      "name": "Hair",
      "pbrMetallicRoughness": {
        "baseColorFactor": [
          0.203922,
          0.164706,
          0.152941,
          1.0
        ],
        "metallicFactor": 0.0,
        "roughnessFactor": 0.9666260238641553
      }
    },
    {
      "doubleSided": true,
      "name": "Skin",
      "pbrMetallicRoughness": {
        "baseColorFactor": [
          0.8,
          0.662745,
          0.560784,
          1.0
        ],
        "metallicFactor": 0.0,
        "roughnessFactor": 0.8673203963765201
      }
    },
    {
      "doubleSided": true,
      "name": "White.001",
      "pbrMetallicRoughness": {
        "baseColorFactor": [
          0.8,
          0.8,
          0.8,
          1.0
        ],
        "metallicFactor": 0.0,
        "roughnessFactor": 0.8449469889683662
      }
    },
    {
      "doubleSided": true,
      "name": "FlaBlack",
      "pbrMetallicRoughness": {
        "baseColorFactor": [
          0.105882,
          0.101961,
          0.145098,
          1.0
        ],
        "metallicFactor": 0.0,
        "roughnessFactor": 0.9794730947119521
      }
    },
    {
      "doubleSided": true,
      "name": "BatStraps.001",
      "pbrMetallicRoughness": {
        "baseColorFactor": [
          0.0,
          0.0,
          0.0,
          1.0
        ],
        "metallicFactor": 0.5914868455453611,
        "roughnessFactor": 0.4881239017687224
      }
    },
    {
      "doubleSided": true,
      "name": "material",
      "pbrMetallicRoughness": {
        "baseColorFactor": [
          0.266667,
          0.505882,
          0.592157,
          1.0
        ],
        "metallicFactor": 0.7495713477919851,
        "roughnessFactor": 0.6279678845253513
      }
    },
    {
      "doubleSided": true,
      "name": "Chief",
      "pbrMetallicRoughness": {
        "baseColorFactor": [
          0.45882399999999973,
          0.2549020000000001,
          0.658824,
          1.0
        ],
        "metallicFactor": 0.6766092698320049,
        "roughnessFactor": 0.4516428627887322
      }
    },
    {
      "doubleSided": true,
      "name": "Eyes",
      "pbrMetallicRoughness": {
        "baseColorFactor": [
          0.164706,
          0.243137,
          0.458824,
          1.0
        ],
        "metallicFactor": 0.0,
        "roughnessFactor": 0.9530896474898803
      }
    }
  ],
  "meshes": [
    {
      "name": "JonnyFrost.obj_Hair_0",
      "primitives": [
        {
          "attributes": {
            "NORMAL": 1,
            "POSITION": 0,
            "TEXCOORD_0": 2
          },
          "indices": 3,
          "material": 0,
          "mode": 4
        }
      ]
    },
    {
      "name": "JonnyFrost.obj_Skin_0",
      "primitives": [
        {
          "attributes": {
            "NORMAL": 5,
            "POSITION": 4,
            "TEXCOORD_0": 6
          },
          "indices": 7,
          "material": 1,
          "mode": 4
        }
      ]
    },
    {
      "name": "JonnyFrost.obj_White.001_0",
      "primitives": [
        {
          "attributes": {
            "NORMAL": 9,
            "POSITION": 8,
            "TEXCOORD_0": 10
          },
          "indices": 11,
          "material": 2,
          "mode": 4
        }
      ]
    },
    {
      "name": "JonnyFrost.obj_FlaBlack_0",
      "primitives": [
        {
          "attributes": {
            "NORMAL": 13,
            "POSITION": 12,
            "TEXCOORD_0": 14
          },
          "indices": 15,
          "material": 3,
          "mode": 4
        }
      ]
    },
    {
      "name": "JonnyFrost.obj_BatStraps.001_0",
      "primitives": [
        {
          "attributes": {
            "NORMAL": 17,
            "POSITION": 16,
            "TEXCOORD_0": 18
          },
          "indices": 19,
          "material": 4,
          "mode": 4
        }
      ]
    },
    {
      "name": "JonnyFrost.obj_Tie_0",
      "primitives": [
        {
          "attributes": {
            "NORMAL": 21,
            "POSITION": 20,
            "TEXCOORD_0": 22
          },
          "indices": 23,
          "material": 5,
          "mode": 4
        }
      ]
    },
    {
      "name": "JonnyFrost.obj_Chief_0",
      "primitives": [
        {
          "attributes": {
            "NORMAL": 25,
            "POSITION": 24,
            "TEXCOORD_0": 26
          },
          "indices": 27,
          "material": 6,
          "mode": 4
        }
      ]
    },
    {
      "name": "JonnyFrost.obj_Eyes_0",
      "primitives": [
        {
          "attributes": {
            "NORMAL": 29,
            "POSITION": 28,
            "TEXCOORD_0": 30
          },
          "indices": 31,
          "material": 7,
          "mode": 4
        }
      ]
    }
  ],
  "nodes": [
    {
      "children": [
        1
      ],
      "matrix": [
        1.0,
        0.0,
        0.0,
        0.0,
        0.0,
        2.220446049250313e-16,
        -1.0,
        0.0,
        0.0,
        1.0,
        2.220446049250313e-16,
        0.0,
        0.0,
        0.0,
        0.0,
        1.0
      ],
      "name": "Sketchfab_model"
    },
    {
      "children": [
        2
      ],
      "matrix": [
        1.0,
        0.0,
        0.0,
        0.0,
        0.0,
        0.0,
        1.0,
        0.0,
        0.0,
        -1.0,
        0.0,
        0.0,
        0.0,
        0.0,
        0.0,
        1.0
      ],
      "name": "2cb26aeaad2d45fdaee66761de51ef32.fbx"
    },
    {
      "children": [
        3
      ],
      "name": "RootNode"
    },
    {
      "children": [
        4,
        5,
        6,
        7,
        8,
        9,
        10,
        11
      ],
      "matrix": [
        100.0,
        0.0,
        0.0,
        0.0,
        0.0,
        99.99999999999866,
        1.6292067073209114e-05,
        0.0,
        0.0,
        -1.6292067073209114e-05,
        99.99999999999866,
        0.0,
        0.0,
        0.0,
        0.0,
        1.0
      ],
      "name": "JonnyFrost.obj"
    },
    {
      "mesh": 0,
      "name": "JonnyFrost.obj_Hair_0"
    },
    {
      "mesh": 1,
      "name": "JonnyFrost.obj_Skin_0"
    },
    {
      "mesh": 2,
      "name": "JonnyFrost.obj_White.001_0"
    },
    {
      "mesh": 3,
      "name": "JonnyFrost.obj_FlaBlack_0"
    },
    {
      "mesh": 4,
      "name": "JonnyFrost.obj_BatStraps.001_0"
    },
    {
      "mesh": 5,
      "name": "JonnyFrost.obj_Tie_0"
    },
    {
      "mesh": 6,
      "name": "JonnyFrost.obj_Chief_0"
    },
    {
      "mesh": 7,
      "name": "JonnyFrost.obj_Eyes_0"
    }
  ],
  "scene": 0,
  "scenes": [
    {
      "name": "Sketchfab_Scene",
      "nodes": [
        0
      ]
    }
  ]
}
